<svg width="52" height="15" viewBox="0 0 52 15" fill="none" xmlns="http://www.w3.org/2000/svg">
<path d="M0.648 7.574C0.648 6.638 0.786 5.762 1.062 4.946C1.338 4.118 1.734 3.404 2.25 2.804C2.778 2.192 3.42 1.712 4.176 1.364C4.944 1.016 5.808 0.842 6.768 0.842C7.524 0.842 8.178 0.944 8.73 1.148C9.282 1.34 9.744 1.586 10.116 1.886C10.5 2.174 10.812 2.492 11.052 2.84C11.292 3.188 11.472 3.518 11.592 3.83C11.724 4.13 11.814 4.394 11.862 4.622C11.91 4.838 11.934 4.958 11.934 4.982H11.142C11.058 4.442 10.884 3.962 10.62 3.542C10.356 3.11 10.026 2.744 9.63 2.444C9.234 2.144 8.79 1.916 8.298 1.76C7.818 1.604 7.308 1.526 6.768 1.526C5.928 1.526 5.178 1.688 4.518 2.012C3.858 2.336 3.3 2.774 2.844 3.326C2.388 3.866 2.04 4.502 1.8 5.234C1.56 5.966 1.44 6.746 1.44 7.574C1.44 8.402 1.56 9.182 1.8 9.914C2.04 10.646 2.388 11.288 2.844 11.84C3.3 12.38 3.858 12.812 4.518 13.136C5.178 13.46 5.928 13.622 6.768 13.622C7.392 13.622 7.974 13.496 8.514 13.244C9.066 12.98 9.546 12.638 9.954 12.218C10.362 11.786 10.686 11.294 10.926 10.742C11.178 10.178 11.322 9.596 11.358 8.996H12.15C12.078 9.764 11.886 10.472 11.574 11.12C11.274 11.768 10.884 12.332 10.404 12.812C9.936 13.28 9.39 13.646 8.766 13.91C8.142 14.174 7.476 14.306 6.768 14.306C5.808 14.306 4.944 14.132 4.176 13.784C3.42 13.436 2.778 12.962 2.25 12.362C1.734 11.75 1.338 11.036 1.062 10.22C0.786 9.392 0.648 8.51 0.648 7.574ZM16.2858 1.148V6.728H16.3218C16.4418 6.38 16.6098 6.074 16.8258 5.81C17.0538 5.534 17.3118 5.3 17.5998 5.108C17.8998 4.916 18.2238 4.772 18.5718 4.676C18.9198 4.58 19.2738 4.532 19.6338 4.532C20.1738 4.532 20.6298 4.598 21.0018 4.73C21.3858 4.862 21.6978 5.036 21.9378 5.252C22.1778 5.468 22.3638 5.714 22.4958 5.99C22.6398 6.254 22.7418 6.524 22.8018 6.8C22.8618 7.076 22.8978 7.346 22.9098 7.61C22.9218 7.862 22.9278 8.084 22.9278 8.276V14H22.2438V8.15C22.2438 7.922 22.2258 7.634 22.1898 7.286C22.1538 6.938 22.0458 6.608 21.8658 6.296C21.6978 5.972 21.4338 5.696 21.0738 5.468C20.7258 5.24 20.2398 5.126 19.6158 5.126C19.0878 5.126 18.6198 5.222 18.2118 5.414C17.8038 5.606 17.4558 5.876 17.1678 6.224C16.8798 6.56 16.6578 6.968 16.5018 7.448C16.3578 7.916 16.2858 8.432 16.2858 8.996V14H15.6018V1.148H16.2858ZM27.1258 9.464V9.572C27.1258 10.112 27.1978 10.628 27.3418 11.12C27.4858 11.612 27.6958 12.044 27.9718 12.416C28.2598 12.788 28.6138 13.082 29.0338 13.298C29.4658 13.514 29.9638 13.622 30.5278 13.622C31.4518 13.622 32.1838 13.382 32.7238 12.902C33.2638 12.41 33.6358 11.732 33.8398 10.868H34.5238C34.3198 11.948 33.8758 12.776 33.1918 13.352C32.5198 13.928 31.6258 14.216 30.5098 14.216C29.8258 14.216 29.2258 14.096 28.7098 13.856C28.2058 13.604 27.7798 13.268 27.4318 12.848C27.0958 12.416 26.8438 11.912 26.6758 11.336C26.5078 10.748 26.4238 10.118 26.4238 9.446C26.4238 8.798 26.5078 8.18 26.6758 7.592C26.8558 6.992 27.1198 6.47 27.4678 6.026C27.8158 5.57 28.2478 5.21 28.7638 4.946C29.2918 4.67 29.9098 4.532 30.6178 4.532C31.2658 4.532 31.8358 4.652 32.3278 4.892C32.8318 5.132 33.2518 5.462 33.5878 5.882C33.9238 6.29 34.1758 6.77 34.3438 7.322C34.5238 7.862 34.6138 8.444 34.6138 9.068C34.6138 9.128 34.6078 9.2 34.5958 9.284C34.5958 9.356 34.5958 9.416 34.5958 9.464H27.1258ZM33.9118 8.87C33.8878 8.366 33.8038 7.892 33.6598 7.448C33.5158 6.992 33.2998 6.596 33.0118 6.26C32.7358 5.912 32.3938 5.636 31.9858 5.432C31.5898 5.228 31.1338 5.126 30.6178 5.126C30.0658 5.126 29.5798 5.234 29.1598 5.45C28.7398 5.654 28.3858 5.93 28.0978 6.278C27.8098 6.614 27.5878 7.01 27.4318 7.466C27.2758 7.922 27.1798 8.39 27.1438 8.87H33.9118ZM37.1018 5.342V4.748H38.7578V2.84C38.7578 2.516 38.8118 2.24 38.9198 2.012C39.0278 1.772 39.1718 1.58 39.3518 1.436C39.5438 1.292 39.7598 1.184 39.9998 1.112C40.2518 1.04 40.5158 1.004 40.7918 1.004C40.9958 1.004 41.2658 1.034 41.6018 1.094V1.688C41.2658 1.628 40.9958 1.598 40.7918 1.598C40.4078 1.598 40.0838 1.688 39.8198 1.868C39.5678 2.036 39.4418 2.378 39.4418 2.894V4.748H41.3678V5.342H39.4418V14H38.7578V5.342H37.1018ZM44.6956 10.922C44.7196 11.354 44.8156 11.738 44.9836 12.074C45.1516 12.398 45.3676 12.68 45.6316 12.92C45.9076 13.148 46.2256 13.322 46.5856 13.442C46.9456 13.562 47.3356 13.622 47.7556 13.622C48.0556 13.622 48.3736 13.598 48.7096 13.55C49.0576 13.49 49.3756 13.388 49.6636 13.244C49.9636 13.1 50.2096 12.902 50.4016 12.65C50.5936 12.386 50.6896 12.056 50.6896 11.66C50.6896 11.144 50.5336 10.754 50.2216 10.49C49.9096 10.226 49.5136 10.022 49.0336 9.878C48.5656 9.734 48.0556 9.62 47.5036 9.536C46.9636 9.44 46.4536 9.302 45.9736 9.122C45.5056 8.942 45.1156 8.69 44.8036 8.366C44.4916 8.03 44.3356 7.544 44.3356 6.908C44.3356 6.452 44.4376 6.074 44.6416 5.774C44.8456 5.462 45.1036 5.216 45.4156 5.036C45.7396 4.856 46.0996 4.73 46.4956 4.658C46.8916 4.574 47.2876 4.532 47.6836 4.532C48.1636 4.532 48.6136 4.586 49.0336 4.694C49.4536 4.802 49.8136 4.976 50.1136 5.216C50.4256 5.456 50.6656 5.762 50.8336 6.134C51.0136 6.506 51.1036 6.956 51.1036 7.484H50.4196C50.4196 7.064 50.3476 6.704 50.2036 6.404C50.0716 6.104 49.8796 5.864 49.6276 5.684C49.3876 5.492 49.0996 5.354 48.7636 5.27C48.4276 5.174 48.0676 5.126 47.6836 5.126C47.3716 5.126 47.0536 5.156 46.7296 5.216C46.4176 5.276 46.1356 5.378 45.8836 5.522C45.6316 5.666 45.4216 5.852 45.2536 6.08C45.0976 6.308 45.0196 6.584 45.0196 6.908C45.0196 7.28 45.1096 7.58 45.2896 7.808C45.4696 8.036 45.7036 8.222 45.9916 8.366C46.2916 8.498 46.6216 8.606 46.9816 8.69C47.3536 8.774 47.7256 8.858 48.0976 8.942C48.5536 9.026 48.9796 9.128 49.3756 9.248C49.7836 9.356 50.1316 9.512 50.4196 9.716C50.7196 9.908 50.9536 10.16 51.1216 10.472C51.2896 10.784 51.3736 11.18 51.3736 11.66C51.3736 12.164 51.2596 12.578 51.0316 12.902C50.8036 13.226 50.5156 13.49 50.1676 13.694C49.8196 13.886 49.4296 14.018 48.9976 14.09C48.5776 14.174 48.1636 14.216 47.7556 14.216C47.2276 14.216 46.7356 14.144 46.2796 14C45.8356 13.868 45.4456 13.664 45.1096 13.388C44.7736 13.1 44.5096 12.752 44.3176 12.344C44.1256 11.936 44.0236 11.462 44.0116 10.922H44.6956Z" fill="black"/>
</svg>
