<svg width="107" height="14" viewBox="0 0 107 14" fill="none" xmlns="http://www.w3.org/2000/svg">
<path d="M0.134 0.147999H5.498C6.062 0.147999 6.59 0.207999 7.082 0.327999C7.574 0.435999 8.006 0.621999 8.378 0.885999C8.75 1.138 9.038 1.474 9.242 1.894C9.458 2.314 9.566 2.836 9.566 3.46C9.566 4.324 9.32 5.056 8.828 5.656C8.348 6.244 7.676 6.61 6.812 6.754V6.79C7.4 6.862 7.862 7.018 8.198 7.258C8.546 7.498 8.804 7.792 8.972 8.14C9.14 8.488 9.248 8.872 9.296 9.292C9.344 9.712 9.368 10.132 9.368 10.552C9.368 10.804 9.368 11.05 9.368 11.29C9.368 11.53 9.38 11.758 9.404 11.974C9.428 12.178 9.464 12.37 9.512 12.55C9.572 12.73 9.65 12.88 9.746 13H8.864C8.696 12.7 8.6 12.352 8.576 11.956C8.564 11.548 8.558 11.128 8.558 10.696C8.558 10.264 8.54 9.838 8.504 9.418C8.468 8.986 8.354 8.602 8.162 8.266C7.97 7.93 7.664 7.66 7.244 7.456C6.836 7.252 6.254 7.15 5.498 7.15H0.926V13H0.134V0.147999ZM5.498 6.466C5.966 6.466 6.398 6.412 6.794 6.304C7.202 6.184 7.55 6.004 7.838 5.764C8.126 5.524 8.354 5.218 8.522 4.846C8.69 4.474 8.774 4.03 8.774 3.514C8.774 3.034 8.684 2.626 8.504 2.29C8.324 1.942 8.084 1.66 7.784 1.444C7.484 1.228 7.136 1.072 6.74 0.975999C6.344 0.879999 5.93 0.831999 5.498 0.831999H0.926V6.466H5.498ZM13.5359 8.464V8.572C13.5359 9.112 13.6079 9.628 13.7519 10.12C13.8959 10.612 14.1059 11.044 14.3819 11.416C14.6699 11.788 15.0239 12.082 15.4439 12.298C15.8759 12.514 16.3739 12.622 16.9379 12.622C17.8619 12.622 18.5939 12.382 19.1339 11.902C19.6739 11.41 20.0459 10.732 20.2499 9.868H20.9339C20.7299 10.948 20.2859 11.776 19.6019 12.352C18.9299 12.928 18.0359 13.216 16.9199 13.216C16.2359 13.216 15.6359 13.096 15.1199 12.856C14.6159 12.604 14.1899 12.268 13.8419 11.848C13.5059 11.416 13.2539 10.912 13.0859 10.336C12.9179 9.748 12.8339 9.118 12.8339 8.446C12.8339 7.798 12.9179 7.18 13.0859 6.592C13.2659 5.992 13.5299 5.47 13.8779 5.026C14.2259 4.57 14.6579 4.21 15.1739 3.946C15.7019 3.67 16.3199 3.532 17.0279 3.532C17.6759 3.532 18.2459 3.652 18.7379 3.892C19.2419 4.132 19.6619 4.462 19.9979 4.882C20.3339 5.29 20.5859 5.77 20.7539 6.322C20.9339 6.862 21.0239 7.444 21.0239 8.068C21.0239 8.128 21.0179 8.2 21.0059 8.284C21.0059 8.356 21.0059 8.416 21.0059 8.464H13.5359ZM20.3219 7.87C20.2979 7.366 20.2139 6.892 20.0699 6.448C19.9259 5.992 19.7099 5.596 19.4219 5.26C19.1459 4.912 18.8039 4.636 18.3959 4.432C17.9999 4.228 17.5439 4.126 17.0279 4.126C16.4759 4.126 15.9899 4.234 15.5699 4.45C15.1499 4.654 14.7959 4.93 14.5079 5.278C14.2199 5.614 13.9979 6.01 13.8419 6.466C13.6859 6.922 13.5899 7.39 13.5539 7.87H20.3219ZM24.8439 9.922C24.8679 10.354 24.9639 10.738 25.1319 11.074C25.2999 11.398 25.5159 11.68 25.7799 11.92C26.0559 12.148 26.3739 12.322 26.7339 12.442C27.0939 12.562 27.4839 12.622 27.9039 12.622C28.2039 12.622 28.5219 12.598 28.8579 12.55C29.2059 12.49 29.5239 12.388 29.8119 12.244C30.1119 12.1 30.3579 11.902 30.5499 11.65C30.7419 11.386 30.8379 11.056 30.8379 10.66C30.8379 10.144 30.6819 9.754 30.3699 9.49C30.0579 9.226 29.6619 9.022 29.1819 8.878C28.7139 8.734 28.2039 8.62 27.6519 8.536C27.1119 8.44 26.6019 8.302 26.1219 8.122C25.6539 7.942 25.2639 7.69 24.9519 7.366C24.6399 7.03 24.4839 6.544 24.4839 5.908C24.4839 5.452 24.5859 5.074 24.7899 4.774C24.9939 4.462 25.2519 4.216 25.5639 4.036C25.8879 3.856 26.2479 3.73 26.6439 3.658C27.0399 3.574 27.4359 3.532 27.8319 3.532C28.3119 3.532 28.7619 3.586 29.1819 3.694C29.6019 3.802 29.9619 3.976 30.2619 4.216C30.5739 4.456 30.8139 4.762 30.9819 5.134C31.1619 5.506 31.2519 5.956 31.2519 6.484H30.5679C30.5679 6.064 30.4959 5.704 30.3519 5.404C30.2199 5.104 30.0279 4.864 29.7759 4.684C29.5359 4.492 29.2479 4.354 28.9119 4.27C28.5759 4.174 28.2159 4.126 27.8319 4.126C27.5199 4.126 27.2019 4.156 26.8779 4.216C26.5659 4.276 26.2839 4.378 26.0319 4.522C25.7799 4.666 25.5699 4.852 25.4019 5.08C25.2459 5.308 25.1679 5.584 25.1679 5.908C25.1679 6.28 25.2579 6.58 25.4379 6.808C25.6179 7.036 25.8519 7.222 26.1399 7.366C26.4399 7.498 26.7699 7.606 27.1299 7.69C27.5019 7.774 27.8739 7.858 28.2459 7.942C28.7019 8.026 29.1279 8.128 29.5239 8.248C29.9319 8.356 30.2799 8.512 30.5679 8.716C30.8679 8.908 31.1019 9.16 31.2699 9.472C31.4379 9.784 31.5219 10.18 31.5219 10.66C31.5219 11.164 31.4079 11.578 31.1799 11.902C30.9519 12.226 30.6639 12.49 30.3159 12.694C29.9679 12.886 29.5779 13.018 29.1459 13.09C28.7259 13.174 28.3119 13.216 27.9039 13.216C27.3759 13.216 26.8839 13.144 26.4279 13C25.9839 12.868 25.5939 12.664 25.2579 12.388C24.9219 12.1 24.6579 11.752 24.4659 11.344C24.2739 10.936 24.1719 10.462 24.1599 9.922H24.8439ZM38.5079 4.342H36.4919V10.804C36.4919 11.176 36.5339 11.47 36.6179 11.686C36.7019 11.902 36.8279 12.07 36.9959 12.19C37.1759 12.298 37.3859 12.364 37.6259 12.388C37.8779 12.412 38.1659 12.418 38.4899 12.406V13C38.1419 13.024 37.7999 13.024 37.4639 13C37.1399 12.964 36.8519 12.874 36.5999 12.73C36.3479 12.574 36.1439 12.346 35.9879 12.046C35.8439 11.746 35.7839 11.332 35.8079 10.804V4.342H34.0979V3.748H35.8079V0.868H36.4919V3.748H38.5079V4.342ZM47.8221 11.164H47.7861C47.6781 11.44 47.5221 11.704 47.3181 11.956C47.1141 12.196 46.8621 12.412 46.5621 12.604C46.2741 12.796 45.9441 12.946 45.5721 13.054C45.2001 13.162 44.7921 13.216 44.3481 13.216C43.3641 13.216 42.6021 13.006 42.0621 12.586C41.5221 12.154 41.2521 11.494 41.2521 10.606C41.2521 10.066 41.3601 9.628 41.5761 9.292C41.7921 8.944 42.0621 8.674 42.3861 8.482C42.7221 8.278 43.0881 8.134 43.4841 8.05C43.8921 7.966 44.2821 7.906 44.6541 7.87L45.7161 7.78C46.2081 7.744 46.5921 7.69 46.8681 7.618C47.1561 7.534 47.3721 7.426 47.5161 7.294C47.6601 7.15 47.7501 6.97 47.7861 6.754C47.8221 6.538 47.8401 6.268 47.8401 5.944C47.8401 5.692 47.7921 5.458 47.6961 5.242C47.6001 5.026 47.4501 4.834 47.2461 4.666C47.0421 4.498 46.7781 4.366 46.4541 4.27C46.1301 4.174 45.7341 4.126 45.2661 4.126C44.4381 4.126 43.7661 4.33 43.2501 4.738C42.7461 5.146 42.4701 5.764 42.4221 6.592H41.7381C41.7861 5.572 42.1101 4.81 42.7101 4.306C43.3221 3.79 44.1861 3.532 45.3021 3.532C46.4181 3.532 47.2281 3.754 47.7321 4.198C48.2481 4.63 48.5061 5.2 48.5061 5.908V11.29C48.5061 11.422 48.5061 11.554 48.5061 11.686C48.5181 11.818 48.5421 11.938 48.5781 12.046C48.6141 12.154 48.6741 12.244 48.7581 12.316C48.8421 12.376 48.9621 12.406 49.1181 12.406C49.2381 12.406 49.4061 12.388 49.6221 12.352V12.928C49.4421 12.976 49.2561 13 49.0641 13C48.7881 13 48.5661 12.964 48.3981 12.892C48.2421 12.82 48.1221 12.724 48.0381 12.604C47.9541 12.484 47.8941 12.346 47.8581 12.19C47.8341 12.022 47.8221 11.842 47.8221 11.65V11.164ZM47.8221 7.744C47.6541 7.948 47.3961 8.086 47.0481 8.158C46.7121 8.23 46.3341 8.284 45.9141 8.32L44.7621 8.428C44.4261 8.464 44.0901 8.518 43.7541 8.59C43.4181 8.65 43.1121 8.758 42.8361 8.914C42.5721 9.07 42.3561 9.286 42.1881 9.562C42.0201 9.826 41.9361 10.174 41.9361 10.606C41.9361 11.29 42.1521 11.8 42.5841 12.136C43.0161 12.46 43.6101 12.622 44.3661 12.622C45.1461 12.622 45.7641 12.484 46.2201 12.208C46.6761 11.92 47.0241 11.596 47.2641 11.236C47.5041 10.864 47.6541 10.51 47.7141 10.174C47.7861 9.826 47.8221 9.592 47.8221 9.472V7.744ZM59.9301 13H59.2461V11.02H59.2101C59.0901 11.368 58.9161 11.68 58.6881 11.956C58.4721 12.22 58.2141 12.448 57.9141 12.64C57.6261 12.832 57.3081 12.976 56.9601 13.072C56.6121 13.168 56.2581 13.216 55.8981 13.216C55.3581 13.216 54.8961 13.15 54.5121 13.018C54.1401 12.886 53.8341 12.712 53.5941 12.496C53.3541 12.28 53.1621 12.04 53.0181 11.776C52.8861 11.5 52.7901 11.224 52.7301 10.948C52.6701 10.672 52.6341 10.408 52.6221 10.156C52.6101 9.892 52.6041 9.664 52.6041 9.472V3.748H53.2881V9.598C53.2881 9.838 53.3061 10.132 53.3421 10.48C53.3781 10.816 53.4801 11.146 53.6481 11.47C53.8281 11.782 54.0921 12.052 54.4401 12.28C54.7881 12.508 55.2801 12.622 55.9161 12.622C56.4321 12.622 56.8941 12.526 57.3021 12.334C57.7221 12.142 58.0761 11.878 58.3641 11.542C58.6521 11.194 58.8681 10.786 59.0121 10.318C59.1681 9.838 59.2461 9.316 59.2461 8.752V3.748H59.9301V13ZM64.5421 5.8H64.5961C64.6801 5.5 64.8301 5.218 65.0461 4.954C65.2741 4.69 65.5441 4.462 65.8561 4.27C66.1801 4.078 66.5341 3.934 66.9181 3.838C67.3141 3.73 67.7221 3.682 68.1421 3.694V4.378C67.7821 4.33 67.3681 4.366 66.9001 4.486C66.4441 4.606 66.0061 4.87 65.5861 5.278C65.4181 5.458 65.2681 5.632 65.1361 5.8C65.0161 5.968 64.9141 6.154 64.8301 6.358C64.7461 6.562 64.6801 6.79 64.6321 7.042C64.5841 7.294 64.5541 7.594 64.5421 7.942V13H63.8581V3.748H64.5421V5.8ZM76.5743 11.164H76.5383C76.4303 11.44 76.2743 11.704 76.0703 11.956C75.8663 12.196 75.6143 12.412 75.3143 12.604C75.0263 12.796 74.6963 12.946 74.3243 13.054C73.9523 13.162 73.5443 13.216 73.1003 13.216C72.1163 13.216 71.3543 13.006 70.8143 12.586C70.2743 12.154 70.0043 11.494 70.0043 10.606C70.0043 10.066 70.1123 9.628 70.3283 9.292C70.5443 8.944 70.8143 8.674 71.1383 8.482C71.4743 8.278 71.8403 8.134 72.2363 8.05C72.6443 7.966 73.0343 7.906 73.4063 7.87L74.4683 7.78C74.9603 7.744 75.3443 7.69 75.6203 7.618C75.9083 7.534 76.1243 7.426 76.2683 7.294C76.4123 7.15 76.5023 6.97 76.5383 6.754C76.5743 6.538 76.5923 6.268 76.5923 5.944C76.5923 5.692 76.5443 5.458 76.4483 5.242C76.3523 5.026 76.2023 4.834 75.9983 4.666C75.7943 4.498 75.5303 4.366 75.2063 4.27C74.8823 4.174 74.4863 4.126 74.0183 4.126C73.1903 4.126 72.5183 4.33 72.0023 4.738C71.4983 5.146 71.2223 5.764 71.1743 6.592H70.4903C70.5383 5.572 70.8623 4.81 71.4623 4.306C72.0743 3.79 72.9383 3.532 74.0543 3.532C75.1703 3.532 75.9803 3.754 76.4843 4.198C77.0003 4.63 77.2583 5.2 77.2583 5.908V11.29C77.2583 11.422 77.2583 11.554 77.2583 11.686C77.2703 11.818 77.2943 11.938 77.3303 12.046C77.3663 12.154 77.4263 12.244 77.5103 12.316C77.5943 12.376 77.7143 12.406 77.8703 12.406C77.9903 12.406 78.1583 12.388 78.3743 12.352V12.928C78.1943 12.976 78.0083 13 77.8163 13C77.5403 13 77.3183 12.964 77.1503 12.892C76.9943 12.82 76.8743 12.724 76.7903 12.604C76.7063 12.484 76.6463 12.346 76.6103 12.19C76.5863 12.022 76.5743 11.842 76.5743 11.65V11.164ZM76.5743 7.744C76.4063 7.948 76.1483 8.086 75.8003 8.158C75.4643 8.23 75.0863 8.284 74.6663 8.32L73.5143 8.428C73.1783 8.464 72.8423 8.518 72.5063 8.59C72.1703 8.65 71.8643 8.758 71.5883 8.914C71.3243 9.07 71.1083 9.286 70.9403 9.562C70.7723 9.826 70.6883 10.174 70.6883 10.606C70.6883 11.29 70.9043 11.8 71.3363 12.136C71.7683 12.46 72.3623 12.622 73.1183 12.622C73.8983 12.622 74.5163 12.484 74.9723 12.208C75.4283 11.92 75.7763 11.596 76.0163 11.236C76.2563 10.864 76.4063 10.51 76.4663 10.174C76.5383 9.826 76.5743 9.592 76.5743 9.472V7.744ZM81.3563 3.748H82.0403V5.728H82.0763C82.1963 5.38 82.3643 5.074 82.5803 4.81C82.8083 4.534 83.0663 4.3 83.3543 4.108C83.6543 3.916 83.9783 3.772 84.3263 3.676C84.6743 3.58 85.0283 3.532 85.3883 3.532C85.9283 3.532 86.3843 3.598 86.7563 3.73C87.1403 3.862 87.4523 4.036 87.6923 4.252C87.9323 4.468 88.1183 4.714 88.2503 4.99C88.3943 5.254 88.4963 5.524 88.5563 5.8C88.6163 6.076 88.6523 6.346 88.6643 6.61C88.6763 6.862 88.6823 7.084 88.6823 7.276V13H87.9983V7.15C87.9983 6.922 87.9803 6.634 87.9443 6.286C87.9083 5.938 87.8003 5.608 87.6203 5.296C87.4523 4.972 87.1883 4.696 86.8283 4.468C86.4803 4.24 85.9943 4.126 85.3703 4.126C84.8423 4.126 84.3743 4.222 83.9663 4.414C83.5583 4.606 83.2103 4.876 82.9223 5.224C82.6343 5.56 82.4123 5.968 82.2563 6.448C82.1123 6.916 82.0403 7.432 82.0403 7.996V13H81.3563V3.748ZM96.0123 4.342H93.9963V10.804C93.9963 11.176 94.0383 11.47 94.1223 11.686C94.2063 11.902 94.3323 12.07 94.5003 12.19C94.6803 12.298 94.8903 12.364 95.1303 12.388C95.3823 12.412 95.6703 12.418 95.9943 12.406V13C95.6463 13.024 95.3043 13.024 94.9683 13C94.6443 12.964 94.3563 12.874 94.1043 12.73C93.8523 12.574 93.6483 12.346 93.4923 12.046C93.3483 11.746 93.2883 11.332 93.3123 10.804V4.342H91.6023V3.748H93.3123V0.868H93.9963V3.748H96.0123V4.342ZM99.5125 9.922C99.5365 10.354 99.6325 10.738 99.8005 11.074C99.9685 11.398 100.184 11.68 100.448 11.92C100.724 12.148 101.042 12.322 101.402 12.442C101.762 12.562 102.152 12.622 102.572 12.622C102.872 12.622 103.19 12.598 103.526 12.55C103.874 12.49 104.192 12.388 104.48 12.244C104.78 12.1 105.026 11.902 105.218 11.65C105.41 11.386 105.506 11.056 105.506 10.66C105.506 10.144 105.35 9.754 105.038 9.49C104.726 9.226 104.33 9.022 103.85 8.878C103.382 8.734 102.872 8.62 102.32 8.536C101.78 8.44 101.27 8.302 100.79 8.122C100.322 7.942 99.9325 7.69 99.6205 7.366C99.3085 7.03 99.1525 6.544 99.1525 5.908C99.1525 5.452 99.2545 5.074 99.4585 4.774C99.6625 4.462 99.9205 4.216 100.232 4.036C100.556 3.856 100.916 3.73 101.312 3.658C101.708 3.574 102.104 3.532 102.5 3.532C102.98 3.532 103.43 3.586 103.85 3.694C104.27 3.802 104.63 3.976 104.93 4.216C105.242 4.456 105.482 4.762 105.65 5.134C105.83 5.506 105.92 5.956 105.92 6.484H105.236C105.236 6.064 105.164 5.704 105.02 5.404C104.888 5.104 104.696 4.864 104.444 4.684C104.204 4.492 103.916 4.354 103.58 4.27C103.244 4.174 102.884 4.126 102.5 4.126C102.188 4.126 101.87 4.156 101.546 4.216C101.234 4.276 100.952 4.378 100.7 4.522C100.448 4.666 100.238 4.852 100.07 5.08C99.9145 5.308 99.8365 5.584 99.8365 5.908C99.8365 6.28 99.9265 6.58 100.106 6.808C100.286 7.036 100.52 7.222 100.808 7.366C101.108 7.498 101.438 7.606 101.798 7.69C102.17 7.774 102.542 7.858 102.914 7.942C103.37 8.026 103.796 8.128 104.192 8.248C104.6 8.356 104.948 8.512 105.236 8.716C105.536 8.908 105.77 9.16 105.938 9.472C106.106 9.784 106.19 10.18 106.19 10.66C106.19 11.164 106.076 11.578 105.848 11.902C105.62 12.226 105.332 12.49 104.984 12.694C104.636 12.886 104.246 13.018 103.814 13.09C103.394 13.174 102.98 13.216 102.572 13.216C102.044 13.216 101.552 13.144 101.096 13C100.652 12.868 100.262 12.664 99.9265 12.388C99.5905 12.1 99.3265 11.752 99.1345 11.344C98.9425 10.936 98.8405 10.462 98.8285 9.922H99.5125Z" fill="black"/>
</svg>
